PathFileType	4	(X/Y/Z)	./resultDataOpenSim/trcMotMarkerGrf/sub10/qtm-05-05.trc
DataRate	CameraRate	NumFrames	NumMarkers	Units	OrigDataRate	OrigDataStartFrame	OrigNumFrames
250.000000	250.000000	9	24	m	250.000000	65	517
Frame#	Time	L.Toe.Tip			R.Toe.Tip			L.Ankle.Lat			R.Ankle.Lat			L.Ankle.Med			R.Ankle.Med			L.Heel			R.Heel			L.Knee.Lat			R.Knee.Lat			L.Knee.Med			R.Knee.Med			L.Thigh.Upper			R.Thigh.Upper			L.ASIS			R.ASIS			V.Sacral			L.Acromium			R.Acromium			C7			L.Elbow			R.Elbow			L.Wrist.Lat			R.Wrist.Lat
		X1	Y1	Z1	X2	Y2	Z2	X3	Y3	Z3	X4	Y4	Z4	X5	Y5	Z5	X6	Y6	Z6	X7	Y7	Z7	X8	Y8	Z8	X9	Y9	Z9	X10	Y10	Z10	X11	Y11	Z11	X12	Y12	Z12	X13	Y13	Z13	X14	Y14	Z14	X15	Y15	Z15	X16	Y16	Z16	X17	Y17	Z17	X18	Y18	Z18	X19	Y19	Z19	X20	Y20	Z20	X21	Y21	Z21	X22	Y22	Z22	X23	Y23	Z23	X24	Y24	Z24

65	0.256	-1.4210762	0.064704386	-0.16934751	-0.73559323	0.039196697	0.025548613	-1.4180463	0.20411404	-0.20034266	-0.87809289	0.052493365	0.059789187	-1.393045	0.19961048	-0.12094255	-0.85845632	0.080260108	-0.022967844	-1.4603534	0.25232572	-0.15256028	-0.92709131	0.028421146	0.010570914	-1.105903	0.41864582	-0.20839321	-0.84450654	0.45017229	0.094757126	-1.0887345	0.37149847	-0.096602219	-0.84809725	0.45937773	-0.032738597	-1.0354003	0.78998474	-0.21890785	-0.95437311	0.85395045	0.15826991	-0.95464183	0.89541706	-0.16825947	-0.90487928	0.93349152	0.066330881	-1.1277062	0.93506316	-0.012239565	-0.97332413	1.3860081	-0.20417786	-0.97825937	1.3862484	0.11883359	-1.0591407	1.4168741	-0.045386824	-1.0779204	1.0554227	-0.2531137	-1.1226372	1.0748224	0.15818286	-0.90824056	0.87102299	-0.26117842	-1.08791	0.84982282	0.23810917
66	0.26	-1.4149795	0.067625902	-0.16870874	-0.73559072	0.039160987	0.025544573	-1.4083946	0.20668338	-0.20029458	-0.87822009	0.052505125	0.059875295	-1.3835035	0.20200161	-0.12080548	-0.85836221	0.080255543	-0.022914988	-1.4494258	0.25586391	-0.15259316	-0.92713098	0.028412472	0.010612484	-1.0949026	0.41844238	-0.20829117	-0.84240531	0.45012477	0.095206449	-1.0779653	0.37182606	-0.096150725	-0.84622492	0.45921216	-0.032351297	-1.029625	0.79035369	-0.21827506	-0.94940172	0.85443219	0.15880231	-0.94945258	0.89641595	-0.16783442	-0.89946183	0.93404058	0.066961332	-1.1224742	0.93580865	-0.011546196	-0.96839827	1.3868802	-0.20362398	-0.97296519	1.3872706	0.11938773	-1.0541333	1.4177818	-0.044752907	-1.0729968	1.0564708	-0.25221639	-1.1169512	1.0755888	0.15943959	-0.90392641	0.8715276	-0.26068607	-1.0814005	0.85068747	0.2391336
67	0.264	-1.4084405	0.070606586	-0.16789346	-0.73559143	0.039125644	0.025540604	-1.3986828	0.20917977	-0.2001277	-0.8783021	0.052524974	0.059948719	-1.3738573	0.20431886	-0.12058449	-0.85825976	0.080257243	-0.022865923	-1.4385445	0.25910464	-0.15251554	-0.92716652	0.028410884	0.01064974	-1.08386	0.41829682	-0.20812678	-0.84058727	0.45009868	0.095748097	-1.0672372	0.37231321	-0.095644092	-0.84425872	0.45907413	-0.031968196	-1.0238822	0.79079595	-0.21762321	-0.94450003	0.85484031	0.15930131	-0.94431116	0.89746318	-0.1674863	-0.89443445	0.93450993	0.067525106	-1.1172956	0.93652604	-0.01085765	-0.96352477	1.3877391	-0.2030902	-0.96765559	1.388323	0.11991353	-1.0491457	1.4186968	-0.04411785	-1.0680838	1.0574949	-0.25132378	-1.1112313	1.0763236	0.16072235	-0.8996368	0.87203703	-0.26020592	-1.0747339	0.85151392	0.24017269
68	0.268	-1.4012191	0.073533949	-0.16700196	-0.73559327	0.039094129	0.02553968	-1.3887899	0.21162903	-0.19991737	-0.87836736	0.05254547	0.060013971	-1.3641401	0.20660123	-0.12029317	-0.85815232	0.080258476	-0.022813851	-1.4279134	0.26212682	-0.15222421	-0.92719555	0.028417926	0.010682653	-1.0728287	0.41820669	-0.20789586	-0.83896748	0.45009907	0.096324633	-1.0565353	0.37292775	-0.095097164	-0.84211878	0.45896079	-0.031618604	-1.018176	0.79132101	-0.21693751	-0.93969208	0.85520057	0.1597675	-0.93922155	0.89854937	-0.16721155	-0.88954404	0.93495099	0.068046575	-1.1121869	0.93721007	-0.010178292	-0.95869324	1.3885909	-0.20257447	-0.96236001	1.3893884	0.12041752	-1.044178	1.419617	-0.043483087	-1.0632199	1.0584822	-0.25049705	-1.1054612	1.0770182	0.1620195	-0.89536466	0.87255039	-0.25973641	-1.0678285	0.85231481	0.24123997
69	0.272	-1.3930753	0.076338797	-0.16614099	-0.73559639	0.039068434	0.025545441	-1.3787215	0.21403023	-0.19968764	-0.87842422	0.052560867	0.060074506	-1.3543637	0.20887559	-0.11994439	-0.85804775	0.080256646	-0.022758187	-1.4176207	0.26499106	-0.1517221	-0.92721718	0.028432556	0.010710416	-1.061791	0.41818799	-0.20759221	-0.83733588	0.45010425	0.096814086	-1.0458463	0.37364536	-0.094524021	-0.83976901	0.45887483	-0.031315135	-1.0125341	0.79193446	-0.21624782	-0.93501069	0.85553962	0.16019435	-0.93419852	0.89966719	-0.1670007	-0.88458402	0.93540447	0.068556272	-1.107164	0.93786767	-0.0095231562	-0.95390393	1.3894503	-0.20207135	-0.95710514	1.3904412	0.12091327	-1.0392299	1.4205401	-0.042859125	-1.0584217	1.0594315	-0.24974871	-1.0996334	1.0776687	0.16332439	-0.89111153	0.87306563	-0.25927727	-1.0606357	0.85310367	0.24233557
70	0.276	-1.383974	0.078971254	-0.16533592	-0.73560441	0.039048405	0.025560336	-1.3685238	0.21634352	-0.1994236	-0.87845957	0.052564013	0.060126987	-1.3444551	0.2111615	-0.11956493	-0.85795392	0.080252727	-0.022699405	-1.4074705	0.26769871	-0.15120984	-0.92723335	0.028450546	0.010733866	-1.0507085	0.41826366	-0.20721781	-0.83554157	0.45007393	0.097159191	-1.0351533	0.37444506	-0.093936596	-0.83730611	0.45882471	-0.031039509	-1.0069882	0.79262864	-0.21560426	-0.93046616	0.85587565	0.16058179	-0.92924855	0.90081223	-0.16684093	-0.87954269	0.93589197	0.069077552	-1.1022438	0.93851019	-0.0089304122	-0.94915903	1.3903263	-0.20156803	-0.95190032	1.3914725	0.12140739	-1.0343063	1.4214627	-0.04225442	-1.0536832	1.0603556	-0.24904323	-1.0937497	1.0782806	0.16464638	-0.88688854	0.87358353	-0.2588319	-1.0532138	0.85388433	0.2434129
71	0.28	-1.3740595	0.081404422	-0.16455799	-0.73562162	0.039033343	0.025585062	-1.3582206	0.21852006	-0.1991189	-0.87840526	0.052550722	0.06015483	-1.3343193	0.21347026	-0.11916916	-0.85787462	0.080249811	-0.022635634	-1.3971794	0.27020486	-0.15093973	-0.92724772	0.028466919	0.010754648	-1.0395908	0.41845343	-0.20679681	-0.8336319	0.44998781	0.097424304	-1.0244034	0.37531003	-0.093347635	-0.83499177	0.45881008	-0.030744797	-1.0015459	0.79339319	-0.21503338	-0.92601563	0.85622185	0.16094646	-0.92436037	0.9019753	-0.16671951	-0.87450379	0.93641435	0.069625202	-1.0974349	0.93914367	-0.0084369407	-0.94445574	1.3912141	-0.20105767	-0.94673217	1.3924882	0.12189467	-1.0294149	1.4223813	-0.041667501	-1.0489951	1.0612717	-0.24835028	-1.0878207	1.0788697	0.16600233	-0.88271026	0.87410763	-0.2584061	-1.0457157	0.85465807	0.24439933
72	0.284	-1.3634953	0.083643437	-0.16379428	-0.73565072	0.039022431	0.025620528	-1.3478082	0.22053722	-0.19879144	-0.87813977	0.052526549	0.06013362	-1.3239488	0.21579349	-0.1187432	-0.85781354	0.080251956	-0.02256352	-1.3866797	0.27246939	-0.15098724	-0.92726437	0.028480669	0.010773009	-1.0284728	0.41876708	-0.20635799	-0.83171814	0.44986232	0.097708975	-1.0134912	0.37623334	-0.092776548	-0.83307427	0.45880268	-0.030386084	-0.99619405	0.79422492	-0.21452554	-0.92159474	0.8565834	0.16130287	-0.91951817	0.90314239	-0.16662965	-0.86953899	0.93695725	0.070202731	-1.0927018	0.93977143	-0.0080053858	-0.93979211	1.3921025	-0.20054911	-0.94158744	1.3934962	0.12237319	-1.0245581	1.4232934	-0.041091812	-1.0443522	1.0621897	-0.24766921	-1.08188	1.0794548	0.16736109	-0.87858417	0.87464123	-0.25800219	-1.0383033	0.85543185	0.24526036
73	0.288	-1.3523829	0.085702843	-0.1630569	-0.73569303	0.039014931	0.025669148	-1.3372798	0.22240294	-0.19844051	-0.8776155	0.052504918	0.06005801	-1.3134226	0.21809438	-0.11827465	-0.85777742	0.080262653	-0.022479321	-1.3762014	0.27448841	-0.15115742	-0.92728577	0.028494891	0.010788096	-1.0173611	0.41920264	-0.20592182	-0.82983833	0.44972362	0.098074783	-1.002285	0.37722137	-0.09224821	-0.83155249	0.4587593	-0.029959413	-0.99091628	0.79512217	-0.21404723	-0.91718168	0.85695577	0.16165272	-0.9147161	0.90430257	-0.16657251	-0.86469644	0.93750714	0.07079161	-1.0879684	0.94040068	-0.0075375968	-0.93517319	1.3929872	-0.2000531	-0.93646338	1.3945015	0.12284983	-1.0197311	1.4241992	-0.040520714	-1.0397514	1.0631099	-0.24701	-1.0760211	1.0800555	0.16855655	-0.87450972	0.87518359	-0.25761812	-1.031049	0.85620918	0.24602209
